# 3ds Max Wavefront OBJ Exporter v0.97b - (c)2007 guruware
# File Created: 24.02.2017 19:37:34

mtllib amillaryRing.mtl

#
# object Ring_5
#

v  -4.407105 0.141076 -0.936759
v  -5.184830 0.141076 -1.102069
v  -5.300662 0.141076 -0.000000
v  -4.505562 0.141076 -0.000000
v  -4.116036 0.141076 -1.832577
v  -4.842395 0.141076 -2.155972
v  -3.645076 0.141076 -2.648302
v  -4.288325 0.141076 -3.115649
v  -3.014810 0.141076 -3.348283
v  -3.546835 0.141076 -3.939157
v  -2.252781 0.141076 -3.901929
v  -2.650330 0.141076 -4.590504
v  -1.392295 0.141076 -4.285041
v  -1.637994 0.141076 -5.041225
v  -0.470959 0.141076 -4.480877
v  -0.554070 0.141076 -5.271621
v  0.470960 0.141076 -4.480877
v  0.554071 0.141076 -5.271621
v  1.392296 0.141076 -4.285041
v  1.637995 0.141077 -5.041225
v  2.252782 0.141076 -3.901928
v  2.650331 0.141077 -4.590504
v  3.014810 0.141077 -3.348282
v  3.546836 0.141077 -3.939156
v  3.645076 0.141077 -2.648301
v  4.288325 0.141077 -3.115648
v  4.116036 0.141077 -1.832575
v  4.842395 0.141077 -2.155971
v  4.407105 0.141077 -0.936758
v  5.184830 0.141077 -1.102068
v  4.505562 0.141077 0.000001
v  5.300662 0.141077 0.000001
v  4.407104 0.141076 0.936759
v  5.184829 0.141077 1.102069
v  4.116036 0.141076 1.832577
v  4.842395 0.141076 2.155972
v  3.645076 0.141076 2.648302
v  4.288325 0.141076 3.115649
v  3.014809 0.141076 3.348284
v  3.546834 0.141076 3.939157
v  2.252780 0.141076 3.901929
v  2.650330 0.141076 4.590505
v  1.392296 0.141076 4.285041
v  1.637995 0.141076 5.041225
v  0.470959 0.141076 4.480877
v  0.554069 0.141076 5.271621
v  -0.470961 0.141076 4.480877
v  -0.554072 0.141076 5.271620
v  -1.392296 0.141076 4.285041
v  -1.637995 0.141076 5.041225
v  -2.252781 0.141076 3.901929
v  -2.650331 0.141076 4.590505
v  -3.014811 0.141076 3.348282
v  -3.546836 0.141076 3.939155
v  -3.645078 0.141076 2.648300
v  -4.288327 0.141076 3.115647
v  -4.116036 0.141076 1.832575
v  -4.842395 0.141076 2.155971
v  -4.407105 0.141076 0.936759
v  -5.184830 0.141076 1.102069
v  -5.300662 -0.141077 -0.000000
v  -5.184830 -0.141077 -1.102069
v  -4.407105 -0.141076 -0.936759
v  -4.505562 -0.141077 -0.000000
v  -4.842395 -0.141076 -2.155972
v  -4.116036 -0.141076 -1.832577
v  -4.288325 -0.141076 -3.115649
v  -3.645076 -0.141076 -2.648302
v  -3.546835 -0.141076 -3.939157
v  -3.014810 -0.141076 -3.348283
v  -2.650330 -0.141076 -4.590504
v  -2.252781 -0.141076 -3.901929
v  -1.637994 -0.141076 -5.041225
v  -1.392295 -0.141076 -4.285041
v  -0.554070 -0.141076 -5.271621
v  -0.470959 -0.141076 -4.480877
v  0.554071 -0.141076 -5.271621
v  0.470960 -0.141076 -4.480877
v  1.637995 -0.141076 -5.041225
v  1.392296 -0.141076 -4.285041
v  2.650331 -0.141076 -4.590504
v  2.252782 -0.141076 -3.901928
v  3.546836 -0.141076 -3.939156
v  3.014810 -0.141076 -3.348282
v  4.288325 -0.141076 -3.115648
v  3.645077 -0.141076 -2.648301
v  4.842395 -0.141076 -2.155971
v  4.116036 -0.141076 -1.832575
v  5.184830 -0.141076 -1.102068
v  4.407105 -0.141076 -0.936758
v  5.300662 -0.141076 0.000001
v  4.505562 -0.141076 0.000001
v  5.184829 -0.141076 1.102069
v  4.407104 -0.141076 0.936759
v  4.842395 -0.141076 2.155972
v  4.116036 -0.141076 1.832577
v  4.288325 -0.141076 3.115649
v  3.645076 -0.141076 2.648302
v  3.546834 -0.141076 3.939157
v  3.014809 -0.141076 3.348284
v  2.650330 -0.141076 4.590505
v  2.252780 -0.141076 3.901929
v  1.637995 -0.141076 5.041225
v  1.392296 -0.141076 4.285041
v  0.554069 -0.141076 5.271621
v  0.470959 -0.141076 4.480877
v  -0.554072 -0.141076 5.271620
v  -0.470961 -0.141076 4.480877
v  -1.637995 -0.141077 5.041225
v  -1.392296 -0.141076 4.285041
v  -2.650331 -0.141077 4.590505
v  -2.252781 -0.141076 3.901929
v  -3.546836 -0.141077 3.939155
v  -3.014811 -0.141077 3.348282
v  -4.288327 -0.141077 3.115647
v  -3.645078 -0.141077 2.648300
v  -4.842395 -0.141077 2.155971
v  -4.116036 -0.141077 1.832575
v  -5.184830 -0.141077 1.102069
v  -4.407105 -0.141077 0.936759
# 120 vertices

vn -0.000000 1.000000 0.000000
vn 0.000000 -1.000000 -0.000000
vn -0.972789 -0.000000 -0.206773
vn -0.994522 -0.000000 -0.000000
vn -0.908541 -0.000000 -0.404509
vn -0.804585 -0.000000 -0.584565
vn -0.665465 -0.000000 -0.739074
vn -0.497261 -0.000000 -0.861281
vn -0.307324 0.000000 -0.945847
vn -0.103956 0.000000 -0.989074
vn 0.103956 0.000000 -0.989074
vn 0.307324 0.000000 -0.945846
vn 0.497261 0.000000 -0.861281
vn 0.665465 0.000000 -0.739074
vn 0.804585 0.000000 -0.584565
vn 0.908541 0.000000 -0.404509
vn 0.972789 0.000000 -0.206773
vn 0.994522 0.000000 0.000000
vn 0.972789 0.000000 0.206773
vn 0.908541 0.000000 0.404509
vn 0.804585 0.000000 0.584565
vn 0.665465 0.000000 0.739074
vn 0.497261 0.000000 0.861281
vn 0.307324 -0.000000 0.945846
vn 0.103956 -0.000000 0.989074
vn -0.103956 -0.000000 0.989074
vn -0.307324 -0.000000 0.945847
vn -0.497261 -0.000000 0.861281
vn -0.665465 -0.000000 0.739074
vn -0.804585 -0.000000 0.584565
vn -0.908541 -0.000000 0.404508
vn -0.972789 -0.000000 0.206773
vn -0.307324 -0.000000 0.945846
vn -0.908541 -0.000000 -0.404508
vn -0.804585 -0.000000 -0.584566
vn -0.307324 0.000000 -0.945846
vn 0.307324 0.000000 -0.945847
vn 0.908541 0.000000 -0.404508
# 38 vertex normals

vt 0.588362 0.084287 0.000000
vt 0.603956 0.010926 0.000000
vt 0.500000 0.000000 0.000000
vt 0.500000 0.075000 0.000000
vt 0.672863 0.111743 0.000000
vt 0.703368 0.043227 0.000000
vt 0.749809 0.156168 0.000000
vt 0.793893 0.095492 0.000000
vt 0.815837 0.215619 0.000000
vt 0.871572 0.165435 0.000000
vt 0.868061 0.287500 0.000000
vt 0.933013 0.250000 0.000000
vt 0.904199 0.368668 0.000000
vt 0.975528 0.345492 0.000000
vt 0.922672 0.455575 0.000000
vt 0.997261 0.447736 0.000000
vt 0.922672 0.544425 0.000000
vt 0.997261 0.552264 0.000000
vt 0.904199 0.631332 0.000000
vt 0.975528 0.654509 0.000000
vt 0.868061 0.712500 0.000000
vt 0.933013 0.750000 0.000000
vt 0.815837 0.784381 0.000000
vt 0.871572 0.834565 0.000000
vt 0.749809 0.843832 0.000000
vt 0.793893 0.904508 0.000000
vt 0.672863 0.888257 0.000000
vt 0.703368 0.956773 0.000000
vt 0.588362 0.915713 0.000000
vt 0.603956 0.989074 0.000000
vt 0.500000 0.925000 0.000000
vt 0.500000 1.000000 0.000000
vt 0.411637 0.915713 0.000000
vt 0.396044 0.989074 0.000000
vt 0.327137 0.888257 0.000000
vt 0.296632 0.956773 0.000000
vt 0.250191 0.843832 0.000000
vt 0.206107 0.904508 0.000000
vt 0.184163 0.784380 0.000000
vt 0.128428 0.834565 0.000000
vt 0.131939 0.712500 0.000000
vt 0.066987 0.750000 0.000000
vt 0.095801 0.631332 0.000000
vt 0.024472 0.654509 0.000000
vt 0.077328 0.544425 0.000000
vt 0.002739 0.552264 0.000000
vt 0.077328 0.455575 0.000000
vt 0.002739 0.447736 0.000000
vt 0.095801 0.368668 0.000000
vt 0.024472 0.345491 0.000000
vt 0.131939 0.287500 0.000000
vt 0.066987 0.250000 0.000000
vt 0.184164 0.215619 0.000000
vt 0.128428 0.165435 0.000000
vt 0.250191 0.156168 0.000000
vt 0.206108 0.095491 0.000000
vt 0.327137 0.111743 0.000000
vt 0.296632 0.043227 0.000000
vt 0.411637 0.084287 0.000000
vt 0.396044 0.010926 0.000000
vt 0.033333 0.000000 0.000000
vt 0.033333 1.000000 0.000000
vt 0.000000 1.000000 0.000000
vt 0.000000 0.000000 0.000000
vt 0.066667 0.000000 0.000000
vt 0.066667 1.000000 0.000000
vt 0.100000 0.000000 0.000000
vt 0.100000 1.000000 0.000000
vt 0.133333 0.000000 0.000000
vt 0.133333 1.000000 0.000000
vt 0.166667 0.000000 0.000000
vt 0.166667 1.000000 0.000000
vt 0.200000 0.000000 0.000000
vt 0.200000 1.000000 0.000000
vt 0.233333 0.000000 0.000000
vt 0.233333 1.000000 0.000000
vt 0.266667 0.000000 0.000000
vt 0.266667 1.000000 0.000000
vt 0.300000 0.000000 0.000000
vt 0.300000 1.000000 0.000000
vt 0.333333 0.000000 0.000000
vt 0.333333 1.000000 0.000000
vt 0.366667 0.000000 0.000000
vt 0.366667 1.000000 0.000000
vt 0.400000 0.000000 0.000000
vt 0.400000 1.000000 0.000000
vt 0.433333 0.000000 0.000000
vt 0.433333 1.000000 0.000000
vt 0.466667 0.000000 0.000000
vt 0.466667 1.000000 0.000000
vt 0.533333 0.000000 0.000000
vt 0.533333 1.000000 0.000000
vt 0.566667 0.000000 0.000000
vt 0.566667 1.000000 0.000000
vt 0.600000 0.000000 0.000000
vt 0.600000 1.000000 0.000000
vt 0.633333 0.000000 0.000000
vt 0.633333 1.000000 0.000000
vt 0.666667 0.000000 0.000000
vt 0.666667 1.000000 0.000000
vt 0.700000 0.000000 0.000000
vt 0.700000 1.000000 0.000000
vt 0.733333 0.000000 0.000000
vt 0.733333 1.000000 0.000000
vt 0.766667 0.000000 0.000000
vt 0.766667 1.000000 0.000000
vt 0.800000 0.000000 0.000000
vt 0.800000 1.000000 0.000000
vt 0.833333 0.000000 0.000000
vt 0.833333 1.000000 0.000000
vt 0.866667 0.000000 0.000000
vt 0.866667 1.000000 0.000000
vt 0.900000 0.000000 0.000000
vt 0.900000 1.000000 0.000000
vt 0.933333 0.000000 0.000000
vt 0.933333 1.000000 0.000000
vt 0.966667 0.000000 0.000000
vt 0.966667 1.000000 0.000000
vt 1.000000 0.000000 0.000000
vt 1.000000 1.000000 0.000000
# 120 texture coords

g Ring_5
usemtl Steel
s off
f -120/-120/-38 -119/-119/-38 -118/-118/-38 
f -118/-118/-38 -117/-117/-38 -120/-120/-38 
f -116/-116/-38 -115/-115/-38 -119/-119/-38 
f -119/-119/-38 -120/-120/-38 -116/-116/-38 
f -114/-114/-38 -113/-113/-38 -115/-115/-38 
f -115/-115/-38 -116/-116/-38 -114/-114/-38 
f -112/-112/-38 -111/-111/-38 -113/-113/-38 
f -113/-113/-38 -114/-114/-38 -112/-112/-38 
f -110/-110/-38 -109/-109/-38 -111/-111/-38 
f -111/-111/-38 -112/-112/-38 -110/-110/-38 
f -108/-108/-38 -107/-107/-38 -109/-109/-38 
f -109/-109/-38 -110/-110/-38 -108/-108/-38 
f -106/-106/-38 -105/-105/-38 -107/-107/-38 
f -107/-107/-38 -108/-108/-38 -106/-106/-38 
f -104/-104/-38 -103/-103/-38 -105/-105/-38 
f -105/-105/-38 -106/-106/-38 -104/-104/-38 
f -102/-102/-38 -101/-101/-38 -103/-103/-38 
f -103/-103/-38 -104/-104/-38 -102/-102/-38 
f -100/-100/-38 -99/-99/-38 -101/-101/-38 
f -101/-101/-38 -102/-102/-38 -100/-100/-38 
f -98/-98/-38 -97/-97/-38 -99/-99/-38 
f -99/-99/-38 -100/-100/-38 -98/-98/-38 
f -96/-96/-38 -95/-95/-38 -97/-97/-38 
f -97/-97/-38 -98/-98/-38 -96/-96/-38 
f -94/-94/-38 -93/-93/-38 -95/-95/-38 
f -95/-95/-38 -96/-96/-38 -94/-94/-38 
f -92/-92/-38 -91/-91/-38 -93/-93/-38 
f -93/-93/-38 -94/-94/-38 -92/-92/-38 
f -90/-90/-38 -89/-89/-38 -91/-91/-38 
f -91/-91/-38 -92/-92/-38 -90/-90/-38 
f -88/-88/-38 -87/-87/-38 -89/-89/-38 
f -89/-89/-38 -90/-90/-38 -88/-88/-38 
f -86/-86/-38 -85/-85/-38 -87/-87/-38 
f -87/-87/-38 -88/-88/-38 -86/-86/-38 
f -84/-84/-38 -83/-83/-38 -85/-85/-38 
f -85/-85/-38 -86/-86/-38 -84/-84/-38 
f -82/-82/-38 -81/-81/-38 -83/-83/-38 
f -83/-83/-38 -84/-84/-38 -82/-82/-38 
f -80/-80/-38 -79/-79/-38 -81/-81/-38 
f -81/-81/-38 -82/-82/-38 -80/-80/-38 
f -78/-78/-38 -77/-77/-38 -79/-79/-38 
f -79/-79/-38 -80/-80/-38 -78/-78/-38 
f -76/-76/-38 -75/-75/-38 -77/-77/-38 
f -77/-77/-38 -78/-78/-38 -76/-76/-38 
f -74/-74/-38 -73/-73/-38 -75/-75/-38 
f -75/-75/-38 -76/-76/-38 -74/-74/-38 
f -72/-72/-38 -71/-71/-38 -73/-73/-38 
f -73/-73/-38 -74/-74/-38 -72/-72/-38 
f -70/-70/-38 -69/-69/-38 -71/-71/-38 
f -71/-71/-38 -72/-72/-38 -70/-70/-38 
f -68/-68/-38 -67/-67/-38 -69/-69/-38 
f -69/-69/-38 -70/-70/-38 -68/-68/-38 
f -66/-66/-38 -65/-65/-38 -67/-67/-38 
f -67/-67/-38 -68/-68/-38 -66/-66/-38 
f -64/-64/-38 -63/-63/-38 -65/-65/-38 
f -65/-65/-38 -66/-66/-38 -64/-64/-38 
f -62/-62/-38 -61/-61/-38 -63/-63/-38 
f -63/-63/-38 -64/-64/-38 -62/-62/-38 
f -117/-117/-38 -118/-118/-38 -61/-61/-38 
f -61/-61/-38 -62/-62/-38 -117/-117/-38 
f -60/-118/-37 -59/-119/-37 -58/-120/-37 
f -58/-120/-37 -57/-117/-37 -60/-118/-37 
f -59/-119/-37 -56/-115/-37 -55/-116/-37 
f -55/-116/-37 -58/-120/-37 -59/-119/-37 
f -56/-115/-37 -54/-113/-37 -53/-114/-37 
f -53/-114/-37 -55/-116/-37 -56/-115/-37 
f -54/-113/-37 -52/-111/-37 -51/-112/-37 
f -51/-112/-37 -53/-114/-37 -54/-113/-37 
f -52/-111/-37 -50/-109/-37 -49/-110/-37 
f -49/-110/-37 -51/-112/-37 -52/-111/-37 
f -50/-109/-37 -48/-107/-37 -47/-108/-37 
f -47/-108/-37 -49/-110/-37 -50/-109/-37 
f -48/-107/-37 -46/-105/-37 -45/-106/-37 
f -45/-106/-37 -47/-108/-37 -48/-107/-37 
f -46/-105/-37 -44/-103/-37 -43/-104/-37 
f -43/-104/-37 -45/-106/-37 -46/-105/-37 
f -44/-103/-37 -42/-101/-37 -41/-102/-37 
f -41/-102/-37 -43/-104/-37 -44/-103/-37 
f -42/-101/-37 -40/-99/-37 -39/-100/-37 
f -39/-100/-37 -41/-102/-37 -42/-101/-37 
f -40/-99/-37 -38/-97/-37 -37/-98/-37 
f -37/-98/-37 -39/-100/-37 -40/-99/-37 
f -38/-97/-37 -36/-95/-37 -35/-96/-37 
f -35/-96/-37 -37/-98/-37 -38/-97/-37 
f -36/-95/-37 -34/-93/-37 -33/-94/-37 
f -33/-94/-37 -35/-96/-37 -36/-95/-37 
f -34/-93/-37 -32/-91/-37 -31/-92/-37 
f -31/-92/-37 -33/-94/-37 -34/-93/-37 
f -32/-91/-37 -30/-89/-37 -29/-90/-37 
f -29/-90/-37 -31/-92/-37 -32/-91/-37 
f -30/-89/-37 -28/-87/-37 -27/-88/-37 
f -27/-88/-37 -29/-90/-37 -30/-89/-37 
f -28/-87/-37 -26/-85/-37 -25/-86/-37 
f -25/-86/-37 -27/-88/-37 -28/-87/-37 
f -26/-85/-37 -24/-83/-37 -23/-84/-37 
f -23/-84/-37 -25/-86/-37 -26/-85/-37 
f -24/-83/-37 -22/-81/-37 -21/-82/-37 
f -21/-82/-37 -23/-84/-37 -24/-83/-37 
f -22/-81/-37 -20/-79/-37 -19/-80/-37 
f -19/-80/-37 -21/-82/-37 -22/-81/-37 
f -20/-79/-37 -18/-77/-37 -17/-78/-37 
f -17/-78/-37 -19/-80/-37 -20/-79/-37 
f -18/-77/-37 -16/-75/-37 -15/-76/-37 
f -15/-76/-37 -17/-78/-37 -18/-77/-37 
f -16/-75/-37 -14/-73/-37 -13/-74/-37 
f -13/-74/-37 -15/-76/-37 -16/-75/-37 
f -14/-73/-37 -12/-71/-37 -11/-72/-37 
f -11/-72/-37 -13/-74/-37 -14/-73/-37 
f -12/-71/-37 -10/-69/-37 -9/-70/-37 
f -9/-70/-37 -11/-72/-37 -12/-71/-37 
f -10/-69/-37 -8/-67/-37 -7/-68/-37 
f -7/-68/-37 -9/-70/-37 -10/-69/-37 
f -8/-67/-37 -6/-65/-37 -5/-66/-37 
f -5/-66/-37 -7/-68/-37 -8/-67/-37 
f -6/-65/-37 -4/-63/-37 -3/-64/-37 
f -3/-64/-37 -5/-66/-37 -6/-65/-37 
f -4/-63/-37 -2/-61/-37 -1/-62/-37 
f -1/-62/-37 -3/-64/-37 -4/-63/-37 
f -2/-61/-37 -60/-118/-37 -57/-117/-37 
f -57/-117/-37 -1/-62/-37 -2/-61/-37 
f -119/-60/-36 -59/-59/-36 -60/-58/-35 
f -60/-58/-35 -118/-57/-35 -119/-60/-36 
f -115/-56/-34 -56/-55/-34 -59/-59/-36 
f -59/-59/-36 -119/-60/-36 -115/-56/-34 
f -113/-54/-33 -54/-53/-33 -56/-55/-34 
f -56/-55/-34 -115/-56/-34 -113/-54/-33 
f -111/-52/-32 -52/-51/-32 -54/-53/-33 
f -54/-53/-33 -113/-54/-33 -111/-52/-32 
f -109/-50/-31 -50/-49/-31 -52/-51/-32 
f -52/-51/-32 -111/-52/-32 -109/-50/-31 
f -107/-48/-30 -48/-47/-30 -50/-49/-31 
f -50/-49/-31 -109/-50/-31 -107/-48/-30 
f -105/-46/-29 -46/-45/-29 -48/-47/-30 
f -48/-47/-30 -107/-48/-30 -105/-46/-29 
f -103/-44/-28 -44/-43/-28 -46/-45/-29 
f -46/-45/-29 -105/-46/-29 -103/-44/-28 
f -101/-42/-27 -42/-41/-27 -44/-43/-28 
f -44/-43/-28 -103/-44/-28 -101/-42/-27 
f -99/-40/-26 -40/-39/-26 -42/-41/-27 
f -42/-41/-27 -101/-42/-27 -99/-40/-26 
f -97/-38/-25 -38/-37/-25 -40/-39/-26 
f -40/-39/-26 -99/-40/-26 -97/-38/-25 
f -95/-36/-24 -36/-35/-24 -38/-37/-25 
f -38/-37/-25 -97/-38/-25 -95/-36/-24 
f -93/-34/-23 -34/-33/-23 -36/-35/-24 
f -36/-35/-24 -95/-36/-24 -93/-34/-23 
f -91/-32/-22 -32/-31/-22 -34/-33/-23 
f -34/-33/-23 -93/-34/-23 -91/-32/-22 
f -89/-118/-21 -30/-89/-21 -32/-31/-22 
f -32/-31/-22 -91/-32/-22 -89/-118/-21 
f -87/-30/-20 -28/-29/-20 -30/-89/-21 
f -30/-89/-21 -89/-118/-21 -87/-30/-20 
f -85/-28/-19 -26/-27/-19 -28/-29/-20 
f -28/-29/-20 -87/-30/-20 -85/-28/-19 
f -83/-26/-18 -24/-25/-18 -26/-27/-19 
f -26/-27/-19 -85/-28/-19 -83/-26/-18 
f -81/-24/-17 -22/-23/-17 -24/-25/-18 
f -24/-25/-18 -83/-26/-18 -81/-24/-17 
f -79/-22/-16 -20/-21/-16 -22/-23/-17 
f -22/-23/-17 -81/-24/-17 -79/-22/-16 
f -77/-20/-15 -18/-19/-15 -20/-21/-16 
f -20/-21/-16 -79/-22/-16 -77/-20/-15 
f -75/-18/-14 -16/-17/-14 -18/-19/-15 
f -18/-19/-15 -77/-20/-15 -75/-18/-14 
f -73/-16/-13 -14/-15/-13 -16/-17/-14 
f -16/-17/-14 -75/-18/-14 -73/-16/-13 
f -71/-14/-12 -12/-13/-12 -14/-15/-13 
f -14/-15/-13 -73/-16/-13 -71/-14/-12 
f -69/-12/-11 -10/-11/-11 -12/-13/-12 
f -12/-13/-12 -71/-14/-12 -69/-12/-11 
f -67/-10/-10 -8/-9/-10 -10/-11/-11 
f -10/-11/-11 -69/-12/-11 -67/-10/-10 
f -65/-8/-9 -6/-7/-9 -8/-9/-10 
f -8/-9/-10 -67/-10/-10 -65/-8/-9 
f -63/-6/-8 -4/-5/-8 -6/-7/-9 
f -6/-7/-9 -65/-8/-9 -63/-6/-8 
f -61/-4/-7 -2/-3/-7 -4/-5/-8 
f -4/-5/-8 -63/-6/-8 -61/-4/-7 
f -118/-2/-35 -60/-1/-35 -2/-3/-7 
f -2/-3/-7 -61/-4/-7 -118/-2/-35 
f -57/-58/-21 -58/-59/-20 -120/-60/-20 
f -120/-60/-20 -117/-57/-21 -57/-58/-21 
f -58/-59/-20 -55/-55/-19 -116/-56/-19 
f -116/-56/-19 -120/-60/-20 -58/-59/-20 
f -55/-55/-19 -53/-53/-18 -114/-54/-18 
f -114/-54/-18 -116/-56/-19 -55/-55/-19 
f -53/-53/-18 -51/-51/-17 -112/-52/-17 
f -112/-52/-17 -114/-54/-18 -53/-53/-18 
f -51/-51/-17 -49/-49/-16 -110/-50/-16 
f -110/-50/-16 -112/-52/-17 -51/-51/-17 
f -49/-49/-16 -47/-47/-15 -108/-48/-15 
f -108/-48/-15 -110/-50/-16 -49/-49/-16 
f -47/-47/-15 -45/-45/-14 -106/-46/-14 
f -106/-46/-14 -108/-48/-15 -47/-47/-15 
f -45/-45/-14 -43/-43/-13 -104/-44/-13 
f -104/-44/-13 -106/-46/-14 -45/-45/-14 
f -43/-43/-13 -41/-41/-6 -102/-42/-6 
f -102/-42/-6 -104/-44/-13 -43/-43/-13 
f -41/-41/-6 -39/-39/-11 -100/-40/-11 
f -100/-40/-11 -102/-42/-6 -41/-41/-6 
f -39/-39/-11 -37/-37/-10 -98/-38/-10 
f -98/-38/-10 -100/-40/-11 -39/-39/-11 
f -37/-37/-10 -35/-35/-9 -96/-36/-9 
f -96/-36/-9 -98/-38/-10 -37/-37/-10 
f -35/-35/-9 -33/-33/-8 -94/-34/-8 
f -94/-34/-8 -96/-36/-9 -35/-35/-9 
f -33/-33/-8 -31/-31/-7 -92/-32/-7 
f -92/-32/-7 -94/-34/-8 -33/-33/-8 
f -31/-31/-7 -29/-89/-35 -90/-118/-35 
f -90/-118/-35 -92/-32/-7 -31/-31/-7 
f -29/-89/-35 -27/-29/-36 -88/-30/-36 
f -88/-30/-36 -90/-118/-35 -29/-89/-35 
f -27/-29/-36 -25/-27/-5 -86/-28/-5 
f -86/-28/-5 -88/-30/-36 -27/-29/-36 
f -25/-27/-5 -23/-25/-4 -84/-26/-4 
f -84/-26/-4 -86/-28/-5 -25/-27/-5 
f -23/-25/-4 -21/-23/-32 -82/-24/-32 
f -82/-24/-32 -84/-26/-4 -23/-25/-4 
f -21/-23/-32 -19/-21/-31 -80/-22/-31 
f -80/-22/-31 -82/-24/-32 -21/-23/-32 
f -19/-21/-31 -17/-19/-3 -78/-20/-3 
f -78/-20/-3 -80/-22/-31 -19/-21/-31 
f -17/-19/-3 -15/-17/-29 -76/-18/-29 
f -76/-18/-29 -78/-20/-3 -17/-19/-3 
f -15/-17/-29 -13/-15/-28 -74/-16/-28 
f -74/-16/-28 -76/-18/-29 -15/-17/-29 
f -13/-15/-28 -11/-13/-2 -72/-14/-2 
f -72/-14/-2 -74/-16/-28 -13/-15/-28 
f -11/-13/-2 -9/-11/-26 -70/-12/-26 
f -70/-12/-26 -72/-14/-2 -11/-13/-2 
f -9/-11/-26 -7/-9/-25 -68/-10/-25 
f -68/-10/-25 -70/-12/-26 -9/-11/-26 
f -7/-9/-25 -5/-7/-24 -66/-8/-24 
f -66/-8/-24 -68/-10/-25 -7/-9/-25 
f -5/-7/-24 -3/-5/-1 -64/-6/-1 
f -64/-6/-1 -66/-8/-24 -5/-7/-24 
f -3/-5/-1 -1/-3/-22 -62/-4/-22 
f -62/-4/-22 -64/-6/-1 -3/-5/-1 
f -1/-3/-22 -57/-1/-21 -117/-2/-21 
f -117/-2/-21 -62/-4/-22 -1/-3/-22 
# 240 faces

